<svg width="24" height="24" viewBox="0 0 24 24" fill="none" xmlns="http://www.w3.org/2000/svg">
<path fill-rule="evenodd" clip-rule="evenodd" d="M18.5 12C18.5 12.897 17.772 13.625 16.875 13.625H13.625V16.875C13.625 17.772 12.897 18.5 12 18.5C11.103 18.5 10.375 17.772 10.375 16.875V13.625H7.12501C6.228 13.625 5.5 12.897 5.5 12C5.5 11.103 6.228 10.375 7.12501 10.375H10.375V7.125C10.375 6.228 11.103 5.5 12 5.5C12.897 5.5 13.625 6.228 13.625 7.125V10.375H16.875C17.772 10.375 18.5 11.103 18.5 12Z" fill="white"/>
</svg>
