<svg width="27" height="32" viewBox="0 0 27 32" fill="none" xmlns="http://www.w3.org/2000/svg">
<path fill-rule="evenodd" clip-rule="evenodd" d="M15.5051 1.79733L13.0912 0L10.6773 1.79733L7.73707 1.13173L6.2672 3.74987L3.30933 4.3312L3.0368 7.31787L0.5728 9.04587L1.54507 11.8843L0 14.4592L2.0496 16.6587L1.69173 19.6363L4.46347 20.8171L5.35413 23.6816L7.16853 23.656V32L8.62293 31.096L13.0187 28.3637L17.4144 31.096L18.8688 32V23.6539L20.8283 23.6816L21.7189 20.8171L24.4907 19.6363L24.1328 16.6587L26.1819 14.4592L24.6373 11.8837L25.6101 9.04533L23.1456 7.31733L22.8736 4.3312L19.9152 3.74987L18.4448 1.13173L15.5051 1.79733ZM13.2875 24.7275L15.8277 25.8955L16.856 24.7275H17.4144V29.3835L13.7867 27.128L13.0187 26.6512L12.2507 27.1285L8.62293 29.3835V24.7275H9.32693L10.3547 25.8955L12.8949 24.7275H13.2875ZM16.1979 23.2725L16.7211 22.6784L17.1637 22.1749L17.8341 22.1845L19.7621 22.2117L20.3301 20.3851L20.5296 19.7424L21.1488 19.4784L22.9163 18.7264L22.6885 16.8325L22.608 16.1616L23.0688 15.6672L24.3717 14.2688L23.3904 12.632L23.0421 12.0523L23.2613 11.4123L23.8795 9.60853L22.3104 8.5088L21.7584 8.1216L21.6971 7.4496L21.5237 5.54827L19.6347 5.17707L18.9755 5.04747L18.6469 4.46187L17.7083 2.78987L15.8256 3.21547L15.1733 3.3632L14.6363 2.96373L13.0912 1.81333L11.5461 2.96373L11.0091 3.36373L10.3563 3.21547L8.47413 2.78987L7.53547 4.46187L7.2064 5.04747L6.54773 5.17707L4.65867 5.54827L4.48533 7.45013L4.424 8.1216L3.872 8.5088L2.30293 9.60853L2.92107 11.4128L3.13973 12.0523L2.79253 12.632L1.8112 14.2688L3.1136 15.6672L3.5744 16.1616L3.49387 16.8325L3.26613 18.7259L5.0336 19.4784L5.65227 19.7424L5.85227 20.3851L6.42027 22.2117L8.34827 22.1845L9.01867 22.1749L9.46133 22.6784L9.984 23.2725H12.5765L13.0912 23.0363L13.6059 23.2725H16.1979Z" fill="#2E9344"/>
</svg>
