<svg width="42" height="42" viewBox="0 0 42 42" fill="none" xmlns="http://www.w3.org/2000/svg">
<rect x="1" y="1" width="40" height="40" rx="5" fill="#0A373C"/>
<rect x="1" y="1" width="40" height="40" rx="5" stroke="white" stroke-width="2"/>
<path d="M16.7799 34H25.6507M16.7799 20.6938H11.4782C11.1858 20.6937 10.9 20.607 10.6569 20.4445C10.4139 20.2821 10.2244 20.0512 10.1125 19.7811C10.0006 19.511 9.97137 19.2137 10.0284 18.927C10.0854 18.6402 10.2262 18.3768 10.4329 18.1701L20.1701 8.43287C20.4473 8.15571 20.8233 8 21.2153 8C21.6074 8 21.9834 8.15571 22.2606 8.43287L31.9978 18.1701C32.2045 18.3768 32.3453 18.6402 32.4023 18.927C32.4593 19.2137 32.43 19.511 32.3181 19.7811C32.2063 20.0512 32.0168 20.2821 31.7737 20.4445C31.5307 20.607 31.2449 20.6937 30.9525 20.6938H25.6507V29.5646H16.7799V20.6938Z" stroke="white" stroke-width="2" stroke-linecap="round" stroke-linejoin="round"/>
</svg>
