<svg width="24" height="24" viewBox="0 0 24 24" fill="none" xmlns="http://www.w3.org/2000/svg">
<g clip-path="url(#clip0_16118_4371)">
<path d="M23.1105 13.99C24.2046 12.8947 24.2046 11.1062 23.1105 10.0098L23.0666 9.96552L13.4331 19.6049C13.328 19.7091 13.2137 19.8014 13.0926 19.8814C12.9047 20.0055 12.6995 20.0985 12.4837 20.1598C12.2896 20.2148 12.087 20.2443 11.8796 20.2444L11.6801 20.2434C11.5798 20.2343 11.4799 20.2181 11.3815 20.1951C11.1959 20.1519 11.015 20.0836 10.8435 19.9912C10.6621 19.8932 10.4916 19.7683 10.3384 19.6151C10.3354 19.612 10.3323 19.6086 10.3294 19.6053C10.3266 19.6027 10.3236 19.6002 10.321 19.5975L3.98202 13.2469C3.56658 12.8307 3.33673 12.2819 3.33673 11.6936C3.33673 11.1072 3.56658 10.5556 3.98202 10.1412L5.85732 8.2687C6.26532 7.86142 6.82925 7.63029 7.40965 7.62829C7.9875 7.62829 8.55359 7.86422 8.95887 8.27414L11.8815 11.2014L18.0903 4.98779L13.9567 0.854226C12.8623 -0.238505 11.071 -0.238505 9.97568 0.854146L0.820868 10.0098C-0.273543 11.1034 -0.273703 12.8947 0.820868 13.99L9.97752 23.1455C11.071 24.2381 12.8623 24.2381 13.9566 23.1456L23.1105 13.99Z" fill="#2E9344"/>
<path d="M9.07576 10.4247L8.48167 9.83059C8.48151 9.83051 8.48151 9.83027 8.48119 9.83003L7.91935 9.26818C7.61134 8.96018 7.11374 8.95826 6.80293 9.26162L6.80229 9.2613L4.9298 11.1276C4.62043 11.4356 4.61899 11.9222 4.92812 12.2304L9.89112 17.1875L11.336 18.6305C11.647 18.9412 12.1555 18.9411 12.4667 18.6306C12.467 18.6304 12.4671 18.6301 12.4673 18.6299L13.8768 17.2187L23.7698 7.3148C24.0736 7.01008 24.0777 6.47279 23.7775 6.16359C23.7752 6.16111 23.7731 6.15847 23.7708 6.15607L22.8409 5.20342L21.8881 4.27349C21.6194 4.00517 21.1708 3.97277 20.8568 4.17269C20.8112 4.20165 20.7684 4.23557 20.7295 4.27437L12.2548 12.7394L11.8194 13.1749L11.2695 12.6252L9.07512 10.4253L9.07576 10.4247Z" fill="#2E9344"/>
</g>
<defs>
<clipPath id="clip0_16118_4371">
<rect width="24" height="24" fill="white"/>
</clipPath>
</defs>
</svg>
